<svg xmlns="http://www.w3.org/2000/svg" viewBox="0 0 880 380" role="img" aria-label="Now">
  <defs>
    <linearGradient id="bg" x1="0" y1="0" x2="0" y2="1">
      <stop offset="0" stop-color="#0a0a0a"/>
      <stop offset="0.5" stop-color="#000000"/>
      <stop offset="1" stop-color="#0a0a0a"/>
    </linearGradient>
    <radialGradient id="vignette" cx="0.5" cy="0.5" r="0.85">
      <stop offset="0.55" stop-color="#000000" stop-opacity="0"/>
      <stop offset="1" stop-color="#000000" stop-opacity="0.85"/>
    </radialGradient>
    <linearGradient id="rule" x1="0" y1="0" x2="1" y2="0">
      <stop offset="0" stop-color="#ffffff" stop-opacity="0"/>
      <stop offset="0.5" stop-color="#ffffff" stop-opacity="0.45"/>
      <stop offset="1" stop-color="#ffffff" stop-opacity="0"/>
    </linearGradient>
  </defs>

  <rect width="880" height="380" fill="url(#bg)"/>
  <rect width="880" height="380" fill="url(#vignette)"/>

  <rect x="44" y="44" width="792" height="292" fill="none" stroke="#1c1c1c" stroke-width="1"/>
  <rect x="56" y="56" width="768" height="268" fill="none" stroke="#141414" stroke-width="1"/>

  <g stroke="#3a3a3a" stroke-width="1" fill="none">
    <path d="M 44,68 L 44,44 L 68,44"/>
    <path d="M 812,44 L 836,44 L 836,68"/>
    <path d="M 44,312 L 44,336 L 68,336"/>
    <path d="M 812,336 L 836,336 L 836,312"/>
  </g>

  <g font-family="ui-monospace, 'SF Mono', Menlo, monospace" font-size="9" fill="#5a5a5a" letter-spacing="3">
    <text x="72" y="78">CURRENT &#183; MMXXV</text>
    <text x="808" y="78" text-anchor="end">FP</text>
  </g>

  <line x1="200" y1="100" x2="680" y2="100" stroke="url(#rule)" stroke-width="1"/>

  <g font-family="ui-monospace, 'SF Mono', Menlo, monospace" font-size="14">
    <g transform="translate(220, 158)">
      <text x="0" y="0" fill="#6a6a6a" letter-spacing="2">building</text>
      <text x="180" y="0" fill="#bcbcbc">&#8594;</text>
      <text x="220" y="0" fill="#ffffff" font-weight="500">AENOR HOLDING</text>
    </g>
    <g transform="translate(220, 200)">
      <text x="0" y="0" fill="#6a6a6a" letter-spacing="2">reading</text>
      <text x="180" y="0" fill="#bcbcbc">&#8594;</text>
      <text x="220" y="0" fill="#ffffff" font-weight="500">poor charlie&#8217;s almanack</text>
    </g>
    <g transform="translate(220, 242)">
      <text x="0" y="0" fill="#6a6a6a" letter-spacing="2">based in</text>
      <text x="180" y="0" fill="#bcbcbc">&#8594;</text>
      <text x="220" y="0" fill="#ffffff" font-weight="500">s&#227;o paulo, brasil</text>
    </g>
  </g>

  <line x1="200" y1="282" x2="680" y2="282" stroke="url(#rule)" stroke-width="1"/>

  <g font-family="ui-monospace, 'SF Mono', Menlo, monospace" font-size="9" fill="#3a3a3a" letter-spacing="3" text-anchor="middle">
    <text x="440" y="304">updated &#183; april 2026</text>
  </g>

  <g transform="translate(440, 56)">
    <path d="M0,-4 L4,0 L0,4 L-4,0 Z" fill="#ffffff" opacity="0.7">
      <animate attributeName="opacity" values="0.7;0.3;0.7" dur="3.6s" repeatCount="indefinite"/>
    </path>
  </g>
</svg>
